<svg width="48" height="48" viewBox="0 0 48 48" fill="none" xmlns="http://www.w3.org/2000/svg">
<g filter="url(#filter0_d)">
<path d="M44 20C44 8.95312 35.0469 0 24 0C12.9531 0 4 8.95312 4 20C4 31.0469 12.9531 40 24 40C24.1172 40 24.2344 40 24.3516 39.9922V24.4297H20.0547V19.4219H24.3516V15.7344C24.3516 11.4609 26.9609 9.13281 30.7734 9.13281C32.6016 9.13281 34.1719 9.26562 34.625 9.32812V13.7969H32C29.9297 13.7969 29.5234 14.7812 29.5234 16.2266V19.4141H34.4844L33.8359 24.4219H29.5234V39.2266C37.8828 36.8281 44 29.1328 44 20Z" fill="white"/>
</g>
<defs>
<filter id="filter0_d" x="0" y="0" width="48" height="48" filterUnits="userSpaceOnUse" color-interpolation-filters="sRGB">
<feFlood flood-opacity="0" result="BackgroundImageFix"/>
<feColorMatrix in="SourceAlpha" type="matrix" values="0 0 0 0 0 0 0 0 0 0 0 0 0 0 0 0 0 0 127 0"/>
<feOffset dy="4"/>
<feGaussianBlur stdDeviation="2"/>
<feColorMatrix type="matrix" values="0 0 0 0 0 0 0 0 0 0 0 0 0 0 0 0 0 0 0.25 0"/>
<feBlend mode="normal" in2="BackgroundImageFix" result="effect1_dropShadow"/>
<feBlend mode="normal" in="SourceGraphic" in2="effect1_dropShadow" result="shape"/>
</filter>
</defs>
</svg>
