<svg width="35" height="35" viewBox="0 0 35 35" fill="none" xmlns="http://www.w3.org/2000/svg">
<path d="M34.9841 31.8267L32.5064 11.7017C32.3203 10.1857 30.578 9.04167 28.4543 9.04167C27.9664 9.04167 27.5694 9.32604 27.5694 9.67604V12.8136C27.5694 13.1243 27.2419 13.3955 26.8096 13.4152C26.3356 13.4371 25.942 13.168 25.942 12.8333V6.05208C25.942 2.71469 22.1553 0 17.5 0C12.8447 0 9.05799 2.71469 9.05799 6.05208V9.04167H6.54573C4.422 9.04167 2.67969 10.1857 2.49356 11.7017L0.0158839 31.8267C-0.192624 33.5274 1.67815 35 4.06907 35H30.9309C33.3222 35 35.1926 33.5272 34.9841 31.8267ZM12.8213 31.1354H6.92206C6.4727 31.1354 6.10837 30.8742 6.10837 30.5521C6.10837 30.2299 6.4727 29.9687 6.92206 29.9687H12.8213C13.2707 29.9687 13.635 30.2299 13.635 30.5521C13.635 30.8742 13.2707 31.1354 12.8213 31.1354ZM12.8213 28.2187H6.92206C6.4727 28.2187 6.10837 27.9576 6.10837 27.6354C6.10837 27.3133 6.4727 27.0521 6.92206 27.0521H12.8213C13.2707 27.0521 13.635 27.3133 13.635 27.6354C13.635 27.9576 13.2707 28.2187 12.8213 28.2187ZM24.3146 9.04167H13.1976C12.7094 9.04167 12.3127 9.32604 12.3127 9.67604V12.8136C12.3127 13.1243 11.9852 13.3955 11.553 13.4152C11.079 13.4371 10.6854 13.168 10.6854 12.8333V6.05208C10.6854 3.35854 13.7428 1.16667 17.5 1.16667C21.2572 1.16667 24.3146 3.35854 24.3146 6.05208V9.04167Z" fill="white"/>
</svg>
