<svg width="39" height="41" viewBox="0 0 39 41" fill="none" xmlns="http://www.w3.org/2000/svg">
<g clip-path="url(#clip0)">
<path d="M22.7095 5.2786C25.1667 5.67778 27.4458 6.58469 29.3005 7.90091C31.0942 9.17389 32.4129 10.7688 33.1144 12.5136C33.2348 12.8138 33.5122 12.9941 33.8042 12.9941C33.9012 12.9941 33.9997 12.9741 34.0947 12.9321C34.4755 12.7635 34.6538 12.3033 34.4933 11.9038C33.6791 9.87814 32.1733 8.04439 30.1391 6.60064C28.1025 5.15535 25.6127 4.16167 22.9384 3.72722C22.5307 3.661 22.1478 3.95441 22.0847 4.38303C22.0212 4.81104 22.3009 5.21207 22.7095 5.2786Z" fill="#F6C544"/>
<path d="M8.17018 11.1665C8.28855 11.4645 8.58988 11.6653 8.89735 11.65C9.20102 11.6347 9.47985 11.4093 9.57221 11.1055C9.66574 10.798 9.5611 10.4389 9.31559 10.243C9.06161 10.0407 8.68838 10.0333 8.42767 10.2265C8.15031 10.4319 8.04187 10.8381 8.17018 11.1665Z" fill="#F6C544"/>
<path d="M11.7751 8.24364C11.8946 8.54502 12.2012 8.74798 12.5125 8.72714C12.8126 8.70659 13.0856 8.48217 13.1777 8.18201C13.2715 7.87664 13.1663 7.52099 12.9249 7.32416C12.6697 7.11659 12.29 7.10801 12.0282 7.30699C11.7558 7.51394 11.6453 7.91711 11.7751 8.24364Z" fill="#F6C544"/>
<path d="M15.6477 11.1665C15.766 11.4645 16.0676 11.6653 16.3751 11.65C16.6788 11.6347 16.9582 11.4093 17.0506 11.1055C17.1441 10.7977 17.0389 10.4386 16.7931 10.243C16.5391 10.0407 16.1661 10.0333 15.9051 10.2265C15.6281 10.4319 15.5193 10.8381 15.6477 11.1665Z" fill="#F6C544"/>
<path d="M38.9703 25.1346C38.9703 23.4064 37.9117 21.9335 36.4396 21.3893V19.4252C36.6763 19.3335 36.9043 19.2127 37.1185 19.0619C37.9705 18.4613 38.4592 17.5133 38.4592 16.4601C38.4592 15.8016 38.2651 15.1783 37.9044 14.654C38.0868 14.2005 38.1417 13.6971 38.0532 13.201C37.4125 9.60651 35.2123 6.31613 31.8579 3.93542C28.517 1.56452 24.2404 0.258728 19.816 0.258728C15.3916 0.258728 11.1151 1.56452 7.77416 3.93542C4.41975 6.31582 2.21953 9.60651 1.57888 13.201C1.46781 13.8231 1.58209 14.4565 1.89131 14.9885C1.65837 15.4367 1.53708 15.9359 1.53708 16.4601C1.53708 17.5133 2.02576 18.4619 2.87802 19.0622C2.97973 19.134 3.08524 19.198 3.19251 19.2566V21.3893C1.72034 21.9335 0.661728 23.4064 0.661728 25.1346V25.2941C0.661728 26.4389 1.12673 27.4715 1.86822 28.1969C1.65194 28.6335 1.53708 29.1191 1.53708 29.6192C1.53708 30.405 1.80948 31.1319 2.30137 31.7001V34.5324C2.30137 37.5582 4.64802 40.0201 7.53274 40.0201H32.0993C34.984 40.0201 37.3307 37.5582 37.3307 34.5324V32.056C38.0506 31.4542 38.4592 30.5807 38.4592 29.6189C38.4592 29.0158 38.2972 28.4449 37.9947 27.9513C38.6006 27.2474 38.9703 26.3153 38.9703 25.2941V25.1346ZM37.4739 25.1346V25.2941C37.4739 26.1044 37.0887 26.8218 36.5006 27.2569C36.1175 27.5402 35.6542 27.6947 35.1854 27.6947H23.5831L28.3545 22.734H35.1851C36.4472 22.734 37.4739 23.8111 37.4739 25.1346ZM12.0022 22.734L12.1208 22.8588L12.8883 23.6636L11.2817 25.3493L8.78863 22.734H12.0022ZM19.0666 27.9247L14.4762 23.1096C14.4762 23.1093 14.4759 23.109 14.4756 23.1087L14.1185 22.734H26.2255L21.2251 27.9216C21.2248 27.9219 21.2245 27.9222 21.2242 27.9228C21.2236 27.9234 21.2227 27.924 21.2222 27.9247L20.1443 29.0554L19.0666 27.9247ZM3.04959 13.4892C3.6163 10.3105 5.59206 7.3791 8.61268 5.23538C11.7087 3.03832 15.6874 1.8285 19.816 1.8285C23.9447 1.8285 27.9234 3.03832 31.0194 5.23538C34.04 7.3791 36.0155 10.3105 36.5825 13.4892C36.6874 14.0788 36.2385 14.642 35.668 14.642H3.9641C3.39271 14.642 2.94466 14.0788 3.04959 13.4892ZM3.08875 16.041C3.3667 16.1538 3.66628 16.2118 3.9641 16.2118H35.668C36.0809 16.2118 36.4963 16.0996 36.8563 15.8871C36.9268 16.0686 36.9627 16.2639 36.9627 16.4598C36.9627 16.9813 36.7155 17.4547 36.2841 17.7586C35.843 18.0695 35.2813 18.144 34.7768 17.9766C34.5275 17.8938 34.2922 17.7871 34.035 17.7294C33.7568 17.6669 33.4721 17.6393 33.1877 17.6393C31.8512 17.6393 31.134 18.1703 30.5579 18.5968C30.0523 18.9715 29.653 19.2673 28.7914 19.2673C27.9298 19.2673 27.5305 18.9715 27.0249 18.5971C26.4488 18.17 25.7319 17.6393 24.3951 17.6393C23.0585 17.6393 22.3416 18.1703 21.7655 18.5971C21.2599 18.9715 20.8606 19.2673 19.999 19.2673C19.1374 19.2673 18.7378 18.9715 18.2322 18.5968C17.6561 18.17 16.9392 17.6393 15.6026 17.6393C14.2661 17.6393 13.5489 18.1703 12.9728 18.5968C12.4672 18.9715 12.0676 19.2673 11.2063 19.2673C10.3444 19.2673 9.94515 18.9715 9.43923 18.5968C8.86316 18.17 8.14622 17.6393 6.80937 17.6393C6.28065 17.6393 5.80395 17.7334 5.35181 17.9269C4.81783 18.1556 4.19295 18.0977 3.71246 17.7589C3.28106 17.455 3.0338 16.9817 3.0338 16.4601C3.03351 16.3157 3.05222 16.1753 3.08875 16.041ZM4.8377 19.6309C5.23022 19.611 5.59849 19.5071 5.96383 19.3611C6.32829 19.2152 6.72578 19.1864 7.11187 19.2226C7.7724 19.2842 8.13365 19.5518 8.57615 19.8793C9.15222 20.3061 9.86916 20.8371 11.206 20.8371C12.5426 20.8371 13.2595 20.3061 13.8356 19.8793C14.3412 19.5049 14.7407 19.2091 15.6024 19.2091C16.464 19.2091 16.8632 19.5049 17.3688 19.8793C17.9449 20.3061 18.6621 20.8371 19.9987 20.8371C21.3353 20.8371 22.0522 20.3061 22.6283 19.8793C23.1339 19.5049 23.5334 19.2091 24.3948 19.2091C25.2564 19.2091 25.6559 19.5049 26.1615 19.8793C26.7376 20.3061 27.4545 20.8371 28.7911 20.8371C30.1277 20.8371 30.8446 20.3061 31.4207 19.8793C31.9266 19.5049 32.3258 19.2091 33.1875 19.2091C33.4932 19.2091 33.7933 19.2624 34.0783 19.3798C34.3562 19.4945 34.6456 19.577 34.9428 19.6135V21.1645H28.0467C28.0464 21.1645 28.0464 21.1645 28.0461 21.1645H28.0458H12.3143C12.3137 21.1645 12.3128 21.1645 12.3123 21.1645C12.3114 21.1645 12.3105 21.1645 12.3099 21.1645H4.68894V19.6352C4.73862 19.6349 4.78802 19.6334 4.8377 19.6309ZM2.15816 25.1346C2.15816 23.8111 3.18491 22.734 4.44664 22.734H6.67258L10.7527 27.0144C10.893 27.1615 11.0833 27.244 11.2817 27.244C11.4802 27.244 11.6704 27.1615 11.8107 27.0144L13.9466 24.7738L16.7311 27.6947H4.44664C4.0512 27.6947 3.6581 27.5849 3.31497 27.3792C2.62462 26.9656 2.15816 26.1863 2.15816 25.2941V25.1346ZM3.15714 29.0269C3.56895 29.1835 4.00853 29.2645 4.44664 29.2645H18.2275L19.6152 30.7202C19.9023 31.0216 20.383 31.0222 20.6709 30.7226L22.0735 29.2645H35.1851C35.6072 29.2645 36.0286 29.1894 36.4273 29.0446C36.5109 29.0143 36.5962 28.9836 36.6748 28.9413C36.7003 28.9275 36.7371 28.8969 36.7672 28.899C36.8087 28.9021 36.8195 28.9576 36.8344 28.9925C36.9154 29.1799 36.9586 29.385 36.9621 29.5907C36.9747 30.3311 36.4664 30.9507 35.8027 31.1525C35.4225 31.2684 35.0106 31.2426 34.6441 31.0856C34.1929 30.8922 33.7162 30.7981 33.1875 30.7981C31.8509 30.7981 31.134 31.3291 30.5579 31.7559C30.052 32.1305 29.6527 32.4264 28.7911 32.4264C27.9298 32.4264 27.5302 32.1305 27.0246 31.7559C26.4485 31.3291 25.7316 30.7981 24.3951 30.7981C23.0585 30.7981 22.3416 31.3291 21.7652 31.7559C21.2596 32.1305 20.8603 32.4264 19.9987 32.4264C19.1371 32.4264 18.7378 32.1305 18.2319 31.7559C17.6559 31.3291 16.9389 30.7981 15.6024 30.7981C14.2658 30.7981 13.5489 31.3291 12.9725 31.7559C12.4669 32.1305 12.0676 32.4264 11.206 32.4264C10.3441 32.4264 9.94486 32.1302 9.43923 31.7559C8.86287 31.3291 8.14592 30.7981 6.80907 30.7981C6.28035 30.7981 5.80366 30.8922 5.35181 31.086C4.86342 31.2951 4.29408 31.2675 3.83317 30.9952C3.42545 30.7545 3.12178 30.3419 3.05046 29.8516C3.02913 29.7066 3.02796 29.5582 3.04637 29.4126C3.05163 29.3702 3.12032 29.0128 3.15714 29.0269ZM35.8343 34.5324C35.8343 36.6927 34.1587 38.4504 32.0993 38.4504H7.53274C5.47339 38.4504 3.7978 36.6927 3.7978 34.5324V32.6707C4.41216 32.8535 5.07532 32.8406 5.70721 32.6202C5.72007 32.6156 5.73293 32.611 5.7455 32.6067C5.80308 32.5855 5.86065 32.5637 5.91735 32.5392C6.18624 32.4239 6.47793 32.3681 6.80907 32.3681C7.67098 32.3681 8.07023 32.6637 8.57586 33.0384C9.15222 33.4651 9.86916 33.9962 11.206 33.9962C12.5426 33.9962 13.2595 33.4651 13.8356 33.0384C14.3412 32.6637 14.7407 32.3681 15.6021 32.3681C16.4637 32.3681 16.8632 32.6637 17.3688 33.0384C17.9449 33.4651 18.6619 33.9962 19.9987 33.9962C21.3353 33.9962 22.0522 33.4651 22.6283 33.0384C23.1339 32.6637 23.5334 32.3681 24.3948 32.3681C25.2564 32.3681 25.6559 32.6637 26.1612 33.0384C26.7373 33.4651 27.4545 33.9962 28.7911 33.9962C30.1277 33.9962 30.8446 33.4651 31.4207 33.0384C31.9263 32.6637 32.3258 32.3681 33.1875 32.3681C33.4105 32.3681 33.634 32.3942 33.8494 32.4571C34.0543 32.5168 34.2478 32.6113 34.4527 32.672C34.8975 32.8035 35.3777 32.8314 35.834 32.7535V34.5324H35.8343Z" fill="#F6C544"/>
<path d="M17.5647 8.2437C17.683 8.54171 17.9847 8.74406 18.2924 8.72751C18.5961 8.71126 18.8746 8.48683 18.9673 8.1833C19.0614 7.87548 18.9559 7.51707 18.7107 7.32054C18.4573 7.11727 18.0834 7.1096 17.823 7.30368C17.5468 7.5091 17.434 7.91534 17.5647 8.2437Z" fill="#F6C544"/>
<path d="M20.9398 11.7033C21.0582 12.0016 21.3595 12.2021 21.667 12.1868C21.971 12.1715 22.2489 11.9458 22.3421 11.6426C22.4365 11.3351 22.3307 10.9757 22.0852 10.7798C21.8312 10.5772 21.458 10.5704 21.1973 10.7633C20.9202 10.9687 20.8115 11.3749 20.9398 11.7033Z" fill="#F6C544"/>
<path d="M19.0295 4.6559C19.2958 4.842 19.6702 4.8236 19.9177 4.61083C20.1597 4.40295 20.2565 4.03473 20.1448 3.72752C20.0361 3.42921 19.7479 3.21674 19.4425 3.21827C19.1403 3.22011 18.853 3.42829 18.746 3.72507C18.6265 4.05742 18.7487 4.45783 19.0295 4.6559Z" fill="#F6C544"/>
</g>
<defs>
<clipPath id="clip0">
<rect width="38.3086" height="40.1861" fill="white" transform="translate(0.661728 0.0232544)"/>
</clipPath>
</defs>
</svg>
