<svg width="35" height="35" viewBox="0 0 35 35" fill="none" xmlns="http://www.w3.org/2000/svg">
<path d="M14.4942 20.5072C11.1537 17.1665 10.3995 13.8257 10.2293 12.4873C10.1817 12.1172 10.3091 11.746 10.5738 11.4831L13.2771 8.78085C13.6748 8.38341 13.7454 7.76401 13.4473 7.2873L9.14315 0.603436C8.8134 0.0755629 8.13632 -0.114952 7.57971 0.163517L0.670027 3.41795C0.219916 3.6396 -0.0448326 4.11787 0.00627248 4.61701C0.36832 8.0567 1.8678 16.5123 10.1768 24.8225C18.4858 33.1327 26.9396 34.6316 30.3809 34.9937C30.88 35.0448 31.3582 34.7801 31.5799 34.3299L34.8341 27.4198C35.1115 26.8643 34.9222 26.189 34.3966 25.8586L27.7132 21.5554C27.2368 21.257 26.6174 21.3271 26.2197 21.7243L23.5177 24.4278C23.2548 24.6926 22.8836 24.8199 22.5136 24.7724C21.1752 24.6022 17.8347 23.8479 14.4942 20.5072Z" fill="white"/>
<path d="M27.759 18.7071C27.0925 18.7071 26.5522 18.1667 26.5522 17.5002C26.5466 12.5033 22.4975 8.45402 17.501 8.44836C16.8345 8.44836 16.2942 7.90801 16.2942 7.24145C16.2942 6.5749 16.8345 6.03455 17.501 6.03455C23.83 6.04153 28.9589 11.1708 28.9659 17.5002C28.9659 18.1667 28.4255 18.7071 27.759 18.7071Z" fill="white"/>
<path d="M33.7932 18.7071C33.1267 18.7071 32.5863 18.1667 32.5863 17.5002C32.577 9.17207 25.8286 2.42313 17.501 2.41382C16.8345 2.41382 16.2942 1.87347 16.2942 1.20691C16.2942 0.540352 16.8345 0 17.501 0C27.161 0.0106424 34.9893 7.83951 35 17.5002C35 17.8203 34.8728 18.1273 34.6465 18.3536C34.4202 18.5799 34.1132 18.7071 33.7932 18.7071Z" fill="white"/>
</svg>
